<?xml version="1.0" standalone="no"?><!DOCTYPE svg PUBLIC "-//W3C//DTD SVG 1.1//EN" "http://www.w3.org/Graphics/SVG/1.1/DTD/svg11.dtd"><svg t="1641382821647" class="icon" viewBox="0 0 1084 1024" version="1.1" xmlns="http://www.w3.org/2000/svg" p-id="1252" xmlns:xlink="http://www.w3.org/1999/xlink" width="85.74609375" height="81"><defs><style type="text/css"></style></defs><path d="M707.764706 514.228706a255.337412 255.337412 0 1 1 0-510.674824 255.337412 255.337412 0 0 1 0 510.674824z m0-60.235294a195.102118 195.102118 0 1 0 0-390.204236 195.102118 195.102118 0 0 0 0 390.204236z" fill="#333333" p-id="1253"></path><path d="M566.633412 54.633412l-25.901177 54.39247a177.272471 177.272471 0 1 0 35.418353 298.164706l37.948236 46.742588a237.507765 237.507765 0 1 1-47.465412-399.36z" fill="#333333" p-id="1254"></path><path d="M921.238588 503.928471a30.117647 30.117647 0 1 1-26.804706 53.910588 420.321882 420.321882 0 0 0-606.991058 376.711529 30.117647 30.117647 0 0 1-60.235295 0 480.557176 480.557176 0 0 1 694.031059-430.682353z" fill="#333333" p-id="1255"></path><path d="M545.852235 464.956235a30.117647 30.117647 0 0 1-14.095059 58.548706 334.607059 334.607059 0 0 0-413.214117 325.330824 30.117647 30.117647 0 1 1-60.235294 0A394.842353 394.842353 0 0 1 545.792 465.016471z" fill="#333333" p-id="1256"></path><path d="M996.773647 785.347765a30.117647 30.117647 0 0 1 0 60.235294h-241.302588a30.117647 30.117647 0 1 1 0-60.235294h241.302588z" fill="#333333" p-id="1257"></path><path d="M906.24 936.056471a30.117647 30.117647 0 1 1-60.235294 0v-241.242353a30.117647 30.117647 0 1 1 60.235294 0v241.302588z" fill="#333333" p-id="1258"></path></svg>