<?xml version="1.0" standalone="no"?><!DOCTYPE svg PUBLIC "-//W3C//DTD SVG 1.1//EN" "http://www.w3.org/Graphics/SVG/1.1/DTD/svg11.dtd"><svg t="1641618102085" class="icon" viewBox="0 0 1024 1024" version="1.1" xmlns="http://www.w3.org/2000/svg" p-id="5175" xmlns:xlink="http://www.w3.org/1999/xlink" width="200" height="200"><defs><style type="text/css"></style></defs><path d="M986.304 871.424L747.328 630.4c-2.816-2.752-5.888-4.928-8.768-7.232 40.32-62.464 63.936-136.832 63.936-216.96 0-220.16-176.96-398.592-395.392-398.592C188.8 7.616 11.712 186.048 11.712 406.208s177.088 398.592 395.392 398.592a391.232 391.232 0 0 0 215.36-64.576c2.24 3.072 4.352 6.08 7.04 8.832l239.04 241.024a82.688 82.688 0 0 0 117.76 0 84.48 84.48 0 0 0 0-118.656m-579.2-192.512c-149.12 0-270.528-122.368-270.528-272.704 0-150.4 121.344-272.768 270.528-272.768 149.12 0 270.528 122.432 270.528 272.768 0 150.4-121.408 272.704-270.528 272.704" p-id="5176"></path></svg>